<svg xmlns="http://www.w3.org/2000/svg" viewBox="0 0 44 44" role="img" aria-labelledby="packlox-emblem-title">
  <title id="packlox-emblem-title">PackLox emblem</title>
  <defs>
    <linearGradient id="packlox-emblem-gradient" x1="6" y1="5" x2="36" y2="38" gradientUnits="userSpaceOnUse">
      <stop stop-color="#00D4FF"/>
      <stop offset="0.52" stop-color="#1EA7FF"/>
      <stop offset="1" stop-color="#4C2DD9"/>
    </linearGradient>
  </defs>
  <path transform="translate(2 2) scale(1.666667)" fill="url(#packlox-emblem-gradient)" fill-rule="evenodd" d="M12 1.5 21 6l-9 4.5L3 6l9-4.5Zm0 3L9 6l3 1.5L15 6l-3-1.5Z"/>
  <path transform="translate(2 2) scale(1.666667)" fill="url(#packlox-emblem-gradient)" d="M3 7.5 5.2 8.6v7.8l6.8 3.4 6.8-3.4V8.6L21 7.5v10.3L12 22.5 3 17.8V7.5Z"/>
  <path transform="translate(2 2) scale(1.666667)" fill="url(#packlox-emblem-gradient)" d="m6.2 9 5.8 3 5.8-3v2.7L12 14.8l-5.8-3.1V9Zm0 4.6 5.8 3 5.8-3v2.7L12 19.4l-5.8-3.1v-2.7Z"/>
</svg>