<svg xmlns="http://www.w3.org/2000/svg" viewBox="0 0 272 44" role="img" aria-labelledby="plx-logo-title plx-logo-desc">
  <title id="plx-logo-title">PackLox horizontal logo</title><desc id="plx-logo-desc">Reconstructed production authority combining the layered emblem and outlined wordmark.</desc>
  <defs><linearGradient id="plx-logo-gradient" x1="4" y1="2" x2="20" y2="22" gradientUnits="userSpaceOnUse"><stop stop-color="#00D4FF"/><stop offset="0.52" stop-color="#1EA7FF"/><stop offset="1" stop-color="#0066CC"/></linearGradient></defs>
  <path transform="translate(1 2) scale(1.666667)" fill="url(#plx-logo-gradient)" fill-rule="evenodd" d="M12 1.5 21 6l-9 4.5L3 6l9-4.5Zm0 3L9 6l3 1.5L15 6l-3-1.5Z"/>
  <path transform="translate(1 2) scale(1.666667)" fill="url(#plx-logo-gradient)" d="M3 7.5 5.2 8.6v7.8l6.8 3.4 6.8-3.4V8.6L21 7.5v10.3L12 22.5 3 17.8V7.5Z"/>
  <path transform="translate(1 2) scale(1.666667)" fill="url(#plx-logo-gradient)" d="m6.2 9 5.8 3 5.8-3v2.7L12 14.8l-5.8-3.1V9Zm0 4.6 5.8 3 5.8-3v2.7L12 19.4l-5.8-3.1v-2.7Z"/>  <path transform="translate(48 0)" fill="#F8FAFC" d="M1.09 42.194L1.09 2.838L13.842 2.838C18.674 2.838 21.824 3.035 23.291 3.429C25.546 4.019 27.434 5.303 28.956 7.281C30.477 9.259 31.238 11.813 31.238 14.945C31.238 17.361 30.799 19.393 29.922 21.039C29.045 22.686 27.931 23.979 26.58 24.919C25.229 25.858 23.855 26.48 22.459 26.784C20.562 27.16 17.815 27.348 14.217 27.348L9.036 27.348L9.036 42.194ZM9.036 9.496L9.036 20.663L13.385 20.663C16.517 20.663 18.611 20.458 19.667 20.046C20.723 19.634 21.551 18.99 22.15 18.113C22.75 17.236 23.05 16.216 23.05 15.053C23.05 13.621 22.629 12.44 21.788 11.509C20.947 10.578 19.882 9.997 18.593 9.764C17.645 9.585 15.739 9.496 12.875 9.496ZM43.345 22.382L36.499 21.147C37.269 18.391 38.593 16.35 40.472 15.026C42.352 13.702 45.144 13.039 48.848 13.039C52.213 13.039 54.718 13.438 56.365 14.234C58.012 15.03 59.17 16.042 59.842 17.268C60.513 18.493 60.848 20.744 60.848 24.019L60.768 32.825C60.768 35.33 60.889 37.178 61.13 38.368C61.372 39.558 61.824 40.834 62.486 42.194L55.023 42.194C54.826 41.693 54.584 40.95 54.298 39.966C54.173 39.518 54.083 39.223 54.029 39.08C52.741 40.332 51.363 41.272 49.895 41.898C48.428 42.525 46.862 42.838 45.197 42.838C42.262 42.838 39.949 42.042 38.258 40.449C36.566 38.856 35.721 36.842 35.721 34.408C35.721 32.798 36.106 31.361 36.875 30.1C37.645 28.838 38.723 27.872 40.11 27.2C41.497 26.529 43.497 25.943 46.11 25.442C49.636 24.78 52.079 24.162 53.439 23.59L53.439 22.838C53.439 21.388 53.081 20.355 52.365 19.737C51.649 19.12 50.298 18.811 48.311 18.811C46.969 18.811 45.922 19.075 45.17 19.603C44.419 20.131 43.81 21.057 43.345 22.382ZM53.439 28.502C52.472 28.825 50.942 29.209 48.848 29.657C46.754 30.104 45.385 30.543 44.741 30.972C43.757 31.67 43.264 32.556 43.264 33.63C43.264 34.686 43.658 35.599 44.446 36.368C45.233 37.138 46.235 37.523 47.452 37.523C48.812 37.523 50.11 37.075 51.345 36.18C52.258 35.5 52.857 34.668 53.144 33.684C53.34 33.039 53.439 31.813 53.439 30.006ZM93.144 22.113L85.707 23.455C85.457 21.97 84.889 20.851 84.003 20.1C83.117 19.348 81.967 18.972 80.553 18.972C78.674 18.972 77.175 19.621 76.056 20.919C74.938 22.216 74.378 24.386 74.378 27.429C74.378 30.811 74.947 33.2 76.083 34.596C77.22 35.992 78.745 36.69 80.66 36.69C82.092 36.69 83.264 36.283 84.177 35.469C85.09 34.655 85.734 33.254 86.11 31.268L93.519 32.529C92.75 35.93 91.273 38.498 89.09 40.234C86.906 41.97 83.98 42.838 80.311 42.838C76.141 42.838 72.817 41.523 70.338 38.892C67.859 36.261 66.62 32.619 66.62 27.966C66.62 23.259 67.864 19.594 70.352 16.972C72.839 14.35 76.204 13.039 80.446 13.039C83.918 13.039 86.678 13.787 88.727 15.281C90.777 16.775 92.249 19.053 93.144 22.113ZM98.593 42.194L98.593 2.838L106.137 2.838L106.137 23.724L114.969 13.684L124.258 13.684L114.513 24.1L124.956 42.194L116.821 42.194L109.654 29.388L106.137 33.066L106.137 42.194Z"/>
  <path transform="translate(48 0)" fill="#1EA7FF" d="M128.014 41.959L128.014 2.926L135.96 2.926L135.96 35.328L155.719 35.328L155.719 41.959ZM159.585 27.302C159.585 24.796 160.202 22.371 161.437 20.026C162.672 17.682 164.421 15.892 166.685 14.657C168.949 13.422 171.477 12.805 174.269 12.805C178.582 12.805 182.117 14.205 184.873 17.006C187.629 19.807 189.007 23.346 189.007 27.624C189.007 31.937 187.616 35.512 184.833 38.349C182.05 41.185 178.547 42.604 174.323 42.604C171.71 42.604 169.218 42.013 166.846 40.832C164.475 39.651 162.672 37.919 161.437 35.637C160.202 33.355 159.585 30.577 159.585 27.302ZM167.316 27.704C167.316 30.532 167.987 32.698 169.33 34.201C170.672 35.704 172.327 36.456 174.296 36.456C176.265 36.456 177.916 35.704 179.249 34.201C180.582 32.698 181.249 30.514 181.249 27.651C181.249 24.859 180.582 22.711 179.249 21.208C177.916 19.704 176.265 18.953 174.296 18.953C172.327 18.953 170.672 19.704 169.33 21.208C167.987 22.711 167.316 24.877 167.316 27.704ZM191.289 41.959L201.571 27.275L191.719 13.449L200.927 13.449L205.974 21.288L211.289 13.449L220.148 13.449L210.484 26.953L221.034 41.959L211.773 41.959L205.974 33.127L200.122 41.959Z"/>
</svg>
